<?xml version="1.0" encoding="UTF-8"?>
<svg id="_レイヤー_1" data-name="レイヤー_1" xmlns="http://www.w3.org/2000/svg" version="1.1" viewBox="0 0 351.51 110.56">
  <!-- Generator: Adobe Illustrator 29.5.0, SVG Export Plug-In . SVG Version: 2.1.0 Build 137)  -->
  <defs>
    <style>
      .st0 {
        fill: #ffc718;
      }

      .st1 {
        fill: #353535;
      }

      .st2 {
        fill: #adadad;
      }
    </style>
  </defs>
  <path class="st0" d="M56.22,2.37C27,2.37,3.31,26.06,3.31,55.28s23.69,52.91,52.91,52.91,52.91-23.69,52.91-52.91S85.44,2.37,56.22,2.37ZM56.22,88.71c-18.47,0-33.43-14.97-33.43-33.43s14.97-33.43,33.43-33.43,33.43,14.97,33.43,33.43-14.97,33.43-33.43,33.43Z"/>
  <g>
    <path class="st1" d="M128.29,21.49c1.25,0,2.27,1.01,2.27,2.27v25.2c0,3.34,1.11,5.38,2.1,6.49,1.25,1.51,3.54,3.02,6.95,3.02s5.7-1.51,6.95-3.02c.98-1.11,2.1-3.15,2.1-6.49v-25.2c0-1.25,1.01-2.27,2.27-2.27h3.99c1.25,0,2.27,1.01,2.27,2.27v24.48c0,4.13-.66,8.33-3.28,11.67-3.15,4.13-8.65,6.29-14.29,6.29s-11.15-2.16-14.29-6.29c-2.62-3.34-3.28-7.54-3.28-11.67v-24.48c0-1.25,1.01-2.27,2.27-2.27h3.99Z"/>
    <path class="st1" d="M168.69,39.82h12.52c1.25,0,2.26,1.01,2.26,2.26v2.82c0,1.25-1.01,2.26-2.26,2.26h-12.52c-1.25,0-2.26-1.01-2.26-2.26v-2.82c0-1.25,1.01-2.26,2.26-2.26Z"/>
    <path class="st1" d="M203.97,57.88h15.95c1.25,0,2.26,1.01,2.26,2.26v2.83c0,1.25-1.01,2.26-2.26,2.26h-28.16c-1.74,0-2.83-1.89-1.95-3.4l18.26-31.28c.44-.76-.1-1.71-.98-1.71h-13.66c-1.25,0-2.26-1.01-2.26-2.26v-2.83c0-1.25,1.01-2.26,2.26-2.26h25.87c1.74,0,2.83,1.89,1.95,3.4l-18.26,31.27c-.44.76.1,1.72.99,1.72Z"/>
    <path class="st1" d="M254.25,28.84h-12.33c-.62,0-1.13.5-1.13,1.13v7.52c0,.62.5,1.12,1.12,1.12h11.68c1.26,0,2.28,1.02,2.28,2.28v2.79c0,1.26-1.02,2.28-2.28,2.28h-11.66c-.63,0-1.14.51-1.14,1.14v9.65c0,.63.51,1.14,1.14,1.14h12.32c1.26,0,2.28,1.02,2.28,2.28v2.79c0,1.26-1.02,2.28-2.28,2.28h-19.7c-1.26,0-2.28-1.02-2.28-2.28V23.77c0-1.26,1.02-2.28,2.28-2.28h19.7c1.26,0,2.28,1.02,2.28,2.28v2.79c0,1.26-1.02,2.28-2.28,2.28Z"/>
    <path class="st1" d="M349.62,43.39c0,13.31-9.57,22.82-23.34,22.82s-23.34-9.51-23.34-22.82,9.57-22.88,23.34-22.88,23.34,9.57,23.34,22.88ZM340.83,43.39c0-8.85-6.03-15.14-14.55-15.14s-14.55,6.29-14.55,15.14,6.03,15.08,14.55,15.08,14.55-6.23,14.55-15.08Z"/>
    <path class="st2" d="M166.29,75.05c.74,0,1.35.61,1.35,1.35s-.61,1.35-1.35,1.35-1.35-.61-1.35-1.35.61-1.35,1.35-1.35ZM167.42,80.34v6.9c0,.31-.25.56-.56.56h-1.15c-.31,0-.56-.25-.56-.56v-6.9c0-.31.25-.56.56-.56h1.15c.31,0,.56.25.56.56Z"/>
    <path class="st2" d="M171.78,80.34c0-.31.25-.55.55-.55h1.15c.31,0,.55.25.55.55v.09c0,.13.16.19.24.09.45-.5,1.16-.99,2.24-.99.7,0,1.74.2,2.37.98.55.68.63,1.48.63,2.26v4.48c0,.31-.25.55-.55.55h-1.15c-.31,0-.55-.25-.55-.55v-3.81c0-.44-.02-1.15-.43-1.57-.35-.37-.83-.41-1.05-.41-.59,0-1.05.2-1.39.7-.33.52-.35,1.09-.35,1.55v3.53c0,.31-.25.55-.55.55h-1.15c-.31,0-.55-.25-.55-.55v-6.9Z"/>
    <path class="st2" d="M190.92,79.79h1.12c.31,0,.57.25.57.57v7.07c0,1.22-.11,2.5-1.11,3.5-.55.55-1.52,1.13-3.16,1.13-1.55,0-2.48-.46-3-.92-.45-.39-.83-.98-1.07-1.63-.14-.37.14-.76.53-.76h1.28c.22,0,.43.13.52.33.11.25.26.48.44.63.44.41,1.05.43,1.37.43.65,0,1.07-.22,1.37-.5.52-.5.57-1.13.57-1.78v-.36c0-.24-.29-.37-.47-.2-.7.67-1.5.76-1.99.76-1.07,0-2-.33-2.77-1.09-.59-.59-1.28-1.63-1.28-3.18,0-1.26.46-2.42,1.24-3.18.7-.68,1.68-1.07,2.76-1.07,1.16,0,1.85.49,2.24.93.1.11.27.04.27-.11h0c0-.31.25-.57.57-.57ZM186.89,82.08c-.37.33-.72.87-.72,1.7,0,.7.26,1.22.59,1.57.48.52,1.09.7,1.63.7s1.11-.2,1.5-.55c.46-.43.72-1.07.72-1.72,0-.76-.33-1.28-.65-1.61-.44-.46-.96-.65-1.57-.65-.72,0-1.22.3-1.5.55Z"/>
    <path class="st2" d="M217.55,79.79h1.15c.31,0,.55.25.55.55v.09c0,.13.16.19.24.09.45-.51,1.16-.99,2.24-.99.7,0,1.74.2,2.37.98.55.68.63,1.48.63,2.26v4.48c0,.31-.25.55-.55.55h-1.15c-.31,0-.55-.25-.55-.55v-3.81c0-.44-.02-1.15-.43-1.57-.35-.37-.83-.41-1.05-.41-.59,0-1.05.2-1.39.7-.33.52-.35,1.09-.35,1.55v3.53c0,.31-.25.55-.55.55h-1.15c-.31,0-.55-.25-.55-.55v-6.9c0-.31.25-.55.55-.55Z"/>
    <path class="st2" d="M229.75,74.31h1.7c.15,0,.28.13.28.28v5.49c0,.25.29.37.47.2.45-.41,1.1-.76,2.01-.76.7,0,1.74.2,2.37.98.55.68.63,1.48.63,2.26v4.75c0,.15-.13.28-.28.28h-1.7c-.15,0-.28-.13-.28-.28v-4.08c0-.44-.02-1.15-.42-1.57-.35-.37-.83-.41-1.05-.41-.59,0-1.05.2-1.39.7-.33.52-.35,1.09-.35,1.55v3.81c0,.15-.13.28-.28.28h-1.7c-.15,0-.28-.13-.28-.28v-12.92c0-.15.13-.28.28-.28Z"/>
    <path class="st2" d="M256.77,92.03h-1.15c-.31,0-.55-.25-.55-.55v-11.14c0-.31.25-.55.55-.55h1.15c.31,0,.55.25.55.55v.09c0,.13.15.19.24.09.42-.47,1.16-1,2.37-1,.7,0,1.83.17,2.74,1.07.59.59,1.2,1.59,1.2,3.18,0,1.81-.79,2.79-1.26,3.24-.61.57-1.53,1.04-2.72,1.04-.51,0-1.49-.08-2.33-1-.08-.09-.24-.03-.24.09v4.33c0,.31-.25.55-.55.55ZM257.86,82.06c-.5.43-.76.98-.76,1.72s.3,1.35.74,1.74c.3.26.78.54,1.48.54.74,0,1.22-.3,1.52-.57.48-.44.7-1.11.7-1.7s-.24-1.26-.68-1.68c-.41-.37-1-.57-1.53-.57-.59,0-1.05.17-1.46.54Z"/>
    <path class="st2" d="M269.9,92.03h-1.15c-.31,0-.55-.25-.55-.55v-11.14c0-.31.25-.55.55-.55h1.15c.31,0,.55.25.55.55v.09c0,.13.15.19.24.09.42-.47,1.16-1,2.37-1,.7,0,1.83.17,2.74,1.07.59.59,1.2,1.59,1.2,3.18,0,1.81-.79,2.79-1.26,3.24-.61.57-1.53,1.04-2.72,1.04-.51,0-1.49-.08-2.33-1-.08-.09-.24-.03-.24.09v4.33c0,.31-.25.55-.55.55ZM270.99,82.06c-.5.43-.76.98-.76,1.72s.3,1.35.74,1.74c.3.26.78.54,1.48.54.74,0,1.22-.3,1.52-.57.48-.44.7-1.11.7-1.7s-.24-1.26-.68-1.68c-.41-.37-1-.57-1.53-.57-.59,0-1.05.17-1.46.54Z"/>
    <path class="st2" d="M283.95,86.33l-3.2-5.71c-.21-.37.06-.82.48-.82h1.35c.2,0,.39.11.49.29l2.06,3.78c.11.2.4.19.5-.01l1.83-3.75c.09-.19.29-.31.5-.31h1.29c.42,0,.68.44.49.81l-5.87,11.13c-.1.18-.28.3-.49.3h-1.29c-.42,0-.69-.45-.49-.82l2.35-4.35c.09-.17.09-.37,0-.53Z"/>
    <path class="st1" d="M302.48,85.72h4.65c.31,0,.55.25.55.55v.96c0,.31-.25.55-.55.55h-8.17c-.43,0-.69-.46-.48-.83l5.26-9.01c.11-.18-.03-.42-.24-.42h-4.01c-.31,0-.55-.25-.55-.55v-.96c0-.31.25-.55.55-.55h7.52c.43,0,.69.46.48.83l-5.26,9.01c-.11.19.03.42.24.42Z"/>
    <path class="st1" d="M318.67,77.53h-3.59c-.16,0-.28.13-.28.28v2.19c0,.16.13.28.28.28h3.41c.31,0,.56.25.56.56v.95c0,.31-.25.56-.56.56h-3.41c-.16,0-.28.13-.28.28v2.8c0,.16.13.28.28.28h3.59c.31,0,.56.25.56.56v.95c0,.31-.25.56-.56.56h-5.72c-.31,0-.56-.25-.56-.56v-11.21c0-.31.25-.56.56-.56h5.72c.31,0,.56.25.56.56v.95c0,.31-.25.56-.56.56Z"/>
    <path class="st1" d="M327.35,75.46c1.7,0,2.57.44,3.14.92.94.79,1.22,1.85,1.22,2.77,0,1.2-.48,2.26-1.44,2.9-.26.19-.61.36-1.07.47-.13.03-.19.19-.11.3l3.01,4.07c.27.37,0,.89-.45.89h-1.59c-.19,0-.36-.09-.47-.25l-3.07-4.62c-.04-.05-.1-.09-.16-.09h0c-.11,0-.19.09-.19.19v4.2c0,.31-.25.56-.56.56h-1.29c-.31,0-.56-.25-.56-.56v-11.22c0-.31.25-.56.56-.56h3.01ZM326.18,80.95c0,.11.09.19.19.19h.49c.46,0,2.37-.06,2.37-1.87s-1.89-1.85-2.33-1.85h-.53c-.11,0-.19.09-.19.19v3.33Z"/>
    <path class="st1" d="M348.45,81.64c0,3.75-2.7,6.44-6.58,6.44s-6.58-2.68-6.58-6.44,2.7-6.45,6.58-6.45,6.58,2.7,6.58,6.45ZM345.97,81.64c0-2.5-1.7-4.27-4.11-4.27s-4.11,1.78-4.11,4.27,1.7,4.25,4.11,4.25,4.11-1.76,4.11-4.25Z"/>
    <path class="st1" d="M296.6,61.61c-3.05-4.12-7.88-10.65-9.96-13.45-.47-.64-.15-1.52.61-1.75,1.31-.4,2.36-.94,3.17-1.51,3.41-2.29,5.11-6.03,5.11-10.29,0-3.28-.98-7.01-4.33-9.83-2.03-1.7-5.11-3.28-11.14-3.28h-10.39c-1.25,0-2.26,1.01-2.26,2.26v39.2c0,1.25,1.01,2.26,2.26,2.26h4c1.25,0,2.26-1.01,2.26-2.26v-11.23c.04-1.16.02-1.59.17-2.21.18-.77,1.31-.79,1.85-.2.21.23.46.55.72.88l9.31,14.01c.42.63,1.13,1.01,1.89,1.01h4.92c1.86,0,2.93-2.11,1.82-3.61ZM278.36,41.62h-1.29c-.63,0-1.13-.51-1.13-1.13v-10.9c0-.64.51-1.15,1.15-1.15h1.41c1.57,0,8.26.07,8.26,6.56s-6.75,6.62-8.39,6.62Z"/>
    <path class="st2" d="M134.28,75.93c-.05-.27-.28-.47-.56-.47h-.89c-.23,0-.43.13-.52.34l-2.74,6.28c-.2.46-.85.45-1.04,0l-2.62-6.27c-.09-.21-.29-.35-.52-.35h-.89c-.27,0-.51.19-.56.46l-2.08,11.2c-.06.35.2.67.56.67h1.28c.28,0,.51-.2.56-.47l1.02-6.17c.05-.28.42-.32.53-.06l2.57,6.17s0,0,0,0c.11.31.36.52.62.52.34,0,.53-.22.63-.53h.01l2.66-6.11c.12-.27.52-.22.56.07l.89,6.09c.04.28.28.49.56.49h1.28c.35,0,.62-.31.56-.66l-1.88-11.2Z"/>
    <path class="st2" d="M160.73,86.86l-2.83-3.14c-.21-.23-.19-.58.03-.79l2.31-2.16c.37-.35.13-.97-.38-.97h-1.27c-.15,0-.29.06-.39.16l-2.35,2.29c-.18.18-.48.05-.48-.2v-7.16c0-.31-.25-.56-.56-.56h-1.13c-.31,0-.56.25-.56.56v12.36c0,.31.25.56.56.56h1.13c.31,0,.56-.25.56-.56v-2.23c0-.25.3-.38.48-.2l.85.82,1.72,1.98c.11.12.26.19.42.19h1.48c.49,0,.74-.58.42-.94Z"/>
    <path class="st2" d="M146.66,79.53h1.15c.31,0,.55.25.55.55v6.9c0,.31-.25.55-.55.55h-1.15c-.31,0-.55-.25-.55-.55v-.08c0-.13-.16-.19-.24-.09-.77.88-1.7.99-2.22.99-2.46,0-4.09-1.92-4.09-4.27s1.61-4.25,3.98-4.25c.55,0,1.58.09,2.33.97.08.1.24.04.24-.09v-.07c0-.31.25-.55.55-.55ZM141.9,83.52c0,1.28.92,2.27,2.22,2.27s2.22-1,2.22-2.27-.92-2.26-2.22-2.26-2.22.98-2.22,2.26Z"/>
    <path class="st2" d="M248.62,79.53h1.15c.31,0,.55.25.55.55v6.9c0,.31-.25.55-.55.55h-1.15c-.31,0-.55-.25-.55-.55v-.08c0-.13-.16-.19-.24-.09-.77.88-1.7.99-2.22.99-2.46,0-4.09-1.92-4.09-4.27s1.61-4.25,3.98-4.25c.55,0,1.58.09,2.33.97.08.1.24.04.24-.09v-.07c0-.31.25-.55.55-.55ZM243.86,83.52c0,1.28.92,2.27,2.22,2.27s2.22-1,2.22-2.27-.92-2.26-2.22-2.26-2.22.98-2.22,2.26Z"/>
    <path class="st1" d="M204.72,75.62c.31,0,.55.25.55.55v6.93c0,.91.3,1.46.57,1.77.34.41.96.82,1.89.82s1.55-.41,1.89-.82c.27-.3.57-.86.57-1.77v-6.93c0-.31.25-.55.55-.55h1.21c.31,0,.55.25.55.55v6.73c0,1.12-.18,2.27-.89,3.18-.86,1.12-2.36,1.71-3.89,1.71s-3.04-.59-3.89-1.71c-.71-.91-.89-2.05-.89-3.18v-6.73c0-.31.25-.55.55-.55h1.21Z"/>
  </g>
</svg>